<?xml version="1.0" encoding="UTF-8"?>
<svg xmlns="http://www.w3.org/2000/svg" xmlns:xlink="http://www.w3.org/1999/xlink" width="300px" height="px" viewBox="0 0 300 229" version="1.1">
<g id="surface1">
<path style=" stroke:none;fill-rule:nonzero;fill:rgb(23.529412%,16.078431%,10.980392%);fill-opacity:1;" d="M 127.132812 19.589844 C 134.71875 18.019531 142.492188 17.476562 150.226562 17.660156 C 165.207031 17.875 180.085938 21.636719 193.445312 28.378906 C 196.257812 29.886719 199.230469 31.210938 201.585938 33.425781 C 205.417969 30.328125 210.800781 30.699219 215.226562 32.117188 C 222.453125 34.472656 228.972656 38.605469 234.9375 43.246094 C 240.566406 47.550781 245.269531 52.933594 249.457031 58.621094 C 258.246094 70.574219 265.050781 83.859375 270.839844 97.480469 C 275.0625 107.609375 278.660156 118.007812 281.402344 128.636719 C 283.15625 135.554688 284.542969 142.59375 285.140625 149.71875 C 285.835938 157.230469 283.871094 164.8125 280.425781 171.460938 C 276.769531 178.507812 271.160156 184.609375 264.183594 188.453125 C 257.863281 191.96875 250.464844 193.417969 243.273438 192.796875 C 237.839844 192.300781 232.328125 191.0625 227.6875 188.066406 C 217.476562 192.234375 206.707031 195.179688 195.699219 196.183594 C 190.671875 202.15625 184.085938 206.785156 176.835938 209.65625 C 173.007812 211.222656 168.863281 211.6875 164.8125 212.332031 C 159.011719 213.132812 153.148438 213.453125 147.292969 213.339844 C 141.085938 213.464844 134.871094 213.011719 128.730469 212.09375 C 125.203125 211.5 121.617188 211.023438 118.292969 209.632812 C 111.125 206.742188 104.503906 202.226562 99.582031 196.234375 C 89.507812 195.097656 79.546875 192.636719 70.226562 188.625 C 66.769531 190.652344 62.867188 191.773438 58.925781 192.382812 C 50.910156 193.746094 42.410156 192.613281 35.210938 188.761719 C 26.734375 184.304688 20.238281 176.539062 16.652344 167.726562 C 14.292969 161.980469 13.066406 155.6875 13.699219 149.472656 C 14.847656 136.449219 18.425781 123.777344 22.609375 111.433594 C 28.152344 95.828125 35.007812 80.617188 43.882812 66.605469 C 49.292969 58.242188 55.304688 50.0625 63.144531 43.816406 C 68.75 39.359375 74.851562 35.40625 81.554688 32.816406 C 85.792969 31.210938 90.652344 30.226562 94.992188 32.03125 C 104.980469 26.261719 115.785156 21.804688 127.132812 19.589844 M 138.617188 29.117188 C 125.550781 30.914062 112.921875 35.167969 101.136719 41.035156 C 101.519531 46.601562 99.359375 51.84375 97.941406 57.117188 C 93.914062 71.65625 90.996094 86.503906 89.1875 101.480469 C 86.992188 118.730469 86.515625 136.132812 85.214844 153.460938 C 84.347656 162.332031 83.328125 171.519531 79.015625 179.488281 C 87.6875 182.625 96.808594 184.484375 106.027344 184.867188 C 109.960938 191.804688 116.835938 196.796875 124.328125 199.285156 C 134.179688 201.628906 144.386719 201.816406 154.464844 201.5 C 158.632812 201.296875 162.773438 200.785156 166.890625 200.109375 C 173.335938 199.304688 179.140625 195.828125 183.917969 191.5625 C 186.078125 189.695312 187.632812 187.285156 189.136719 184.882812 C 199.460938 184.398438 209.695312 182.34375 219.367188 178.683594 C 215.644531 171.339844 214.558594 163.050781 213.742188 154.957031 C 212.558594 140.773438 212.144531 126.535156 210.804688 112.367188 C 208.96875 92.273438 205.410156 72.308594 199.667969 52.957031 C 198.585938 49.339844 197.507812 45.648438 197.644531 41.835938 C 185.335938 35.476562 172.023438 30.90625 158.265625 29.101562 C 158.296875 29.3125 158.359375 29.734375 158.386719 29.945312 C 152.171875 29.316406 145.871094 29.144531 139.644531 29.742188 C 139.300781 29.53125 138.957031 29.324219 138.617188 29.117188 M 73.457031 50.734375 C 66.101562 55.816406 60.480469 62.921875 55.53125 70.265625 C 47.402344 82.484375 41.089844 95.828125 35.832031 109.503906 C 30.992188 122.554688 26.863281 136.011719 25.464844 149.910156 C 24.734375 155.800781 26.425781 161.757812 29.277344 166.878906 C 32.265625 172.253906 36.851562 176.855469 42.5625 179.265625 C 48.496094 181.832031 55.316406 181.625 61.417969 179.765625 C 64.78125 178.730469 67.59375 176.226562 69.097656 173.054688 C 71.796875 167.550781 72.53125 161.351562 73.210938 155.328125 C 74.34375 143.433594 74.664062 131.476562 75.628906 119.566406 C 77.265625 96.246094 80.996094 73.019531 87.601562 50.570312 C 88.316406 48.011719 89.226562 45.476562 89.441406 42.808594 C 83.519531 43.957031 78.335938 47.351562 73.457031 50.734375 M 209.367188 42.808594 C 209.984375 47.730469 211.960938 52.355469 213.0625 57.179688 C 219.5 80.957031 222.570312 105.511719 223.898438 130.070312 C 224.628906 140.734375 224.835938 151.460938 226.476562 162.039062 C 227.371094 166.964844 228.453125 172.183594 231.75 176.121094 C 234.796875 179.683594 239.675781 180.625 244.109375 181.066406 C 250.285156 181.695312 256.675781 179.972656 261.59375 176.15625 C 267.761719 171.433594 271.867188 164.222656 273.207031 156.609375 C 273.847656 153.121094 273.359375 149.578125 272.921875 146.105469 C 271.714844 137.375 269.46875 128.820312 266.800781 120.429688 C 264.054688 111.851562 260.75 103.457031 257.027344 95.253906 C 251.207031 82.761719 244.503906 70.523438 235.527344 59.996094 C 231.136719 54.753906 225.617188 50.574219 219.777344 47.082031 C 216.503906 45.25 213.117188 43.414062 209.367188 42.808594 Z M 209.367188 42.808594 "/>
<path style=" stroke:none;fill-rule:nonzero;fill:rgb(23.529412%,16.078431%,10.980392%);fill-opacity:1;" d="M 109.152344 119.789062 C 111.578125 119.160156 114.292969 119.597656 116.3125 121.105469 C 118.496094 122.65625 119.859375 125.285156 119.832031 127.964844 C 119.875 130.867188 118.265625 133.691406 115.808594 135.207031 C 113.238281 136.832031 109.773438 136.886719 107.144531 135.355469 C 104.3125 133.746094 102.554688 130.429688 102.917969 127.175781 C 103.1875 123.726562 105.8125 120.640625 109.152344 119.789062 Z M 109.152344 119.789062 "/>
<path style=" stroke:none;fill-rule:nonzero;fill:rgb(23.529412%,16.078431%,10.980392%);fill-opacity:1;" d="M 182.839844 119.867188 C 185.347656 119.117188 188.214844 119.542969 190.324219 121.128906 C 192.609375 122.761719 193.960938 125.59375 193.800781 128.398438 C 193.695312 130.917969 192.375 133.324219 190.355469 134.816406 C 188.199219 136.445312 185.230469 136.902344 182.675781 136.042969 C 179.277344 134.976562 176.789062 131.542969 176.851562 127.976562 C 176.78125 124.335938 179.363281 120.890625 182.839844 119.867188 Z M 182.839844 119.867188 "/>
<path style=" stroke:none;fill-rule:nonzero;fill:rgb(23.529412%,16.078431%,10.980392%);fill-opacity:1;" d="M 146.210938 149.632812 C 151.132812 149.457031 156.304688 149.734375 160.777344 151.984375 C 162.839844 152.949219 164.425781 155.074219 164.191406 157.429688 C 163.785156 161.578125 160.628906 164.816406 157.402344 167.144531 C 154.195312 169.324219 150.25 171.144531 146.289062 170.332031 C 142.214844 169.394531 138.566406 167.003906 135.742188 163.964844 C 133.6875 161.675781 131.960938 158.589844 132.644531 155.417969 C 133.066406 153.519531 134.847656 152.394531 136.507812 151.652344 C 139.566406 150.339844 142.910156 149.816406 146.210938 149.632812 Z M 146.210938 149.632812 "/>
<path style=" stroke:none;fill-rule:nonzero;fill:rgb(67.058824%,54.509804%,38.039216%);fill-opacity:1;" d="M 138.617188 29.117188 C 138.957031 29.324219 139.300781 29.53125 139.644531 29.742188 C 139.449219 29.796875 139.058594 29.902344 138.859375 29.957031 C 133.535156 66.664062 128.214844 103.371094 122.875 140.070312 C 110.320312 144.53125 97.757812 148.960938 85.214844 153.460938 C 86.515625 136.132812 86.992188 118.730469 89.1875 101.480469 C 90.996094 86.503906 93.914062 71.65625 97.941406 57.117188 C 99.359375 51.84375 101.519531 46.601562 101.136719 41.035156 C 112.921875 35.167969 125.550781 30.914062 138.617188 29.117188 M 109.152344 119.789062 C 105.8125 120.640625 103.1875 123.726562 102.917969 127.175781 C 102.554688 130.429688 104.3125 133.746094 107.144531 135.355469 C 109.773438 136.886719 113.238281 136.832031 115.808594 135.207031 C 118.265625 133.691406 119.875 130.867188 119.832031 127.964844 C 119.859375 125.285156 118.496094 122.65625 116.3125 121.105469 C 114.292969 119.597656 111.578125 119.160156 109.152344 119.789062 Z M 109.152344 119.789062 "/>
<path style=" stroke:none;fill-rule:nonzero;fill:rgb(67.058824%,54.509804%,38.039216%);fill-opacity:1;" d="M 158.265625 29.101562 C 172.023438 30.90625 185.335938 35.476562 197.644531 41.835938 C 197.507812 45.648438 198.585938 49.339844 199.667969 52.957031 C 205.410156 72.308594 208.96875 92.273438 210.804688 112.367188 C 212.144531 126.535156 212.558594 140.773438 213.742188 154.957031 C 213.707031 154.714844 213.636719 154.226562 213.601562 153.980469 C 200.519531 149.371094 187.453125 144.6875 174.371094 140.054688 C 169.054688 103.351562 163.726562 66.648438 158.386719 29.945312 C 158.359375 29.734375 158.296875 29.3125 158.265625 29.101562 M 182.839844 119.867188 C 179.363281 120.890625 176.78125 124.335938 176.851562 127.976562 C 176.789062 131.542969 179.277344 134.976562 182.675781 136.042969 C 185.230469 136.902344 188.199219 136.445312 190.355469 134.816406 C 192.375 133.324219 193.695312 130.917969 193.800781 128.398438 C 193.960938 125.59375 192.609375 122.761719 190.324219 121.128906 C 188.214844 119.542969 185.347656 119.117188 182.839844 119.867188 Z M 182.839844 119.867188 "/>
<path style=" stroke:none;fill-rule:nonzero;fill:rgb(97.647059%,96.470588%,93.333333%);fill-opacity:1;" d="M 139.644531 29.742188 C 145.871094 29.144531 152.171875 29.316406 158.386719 29.945312 C 163.726562 66.648438 169.054688 103.351562 174.371094 140.054688 C 187.453125 144.6875 200.519531 149.371094 213.601562 153.980469 C 213.636719 154.226562 213.707031 154.714844 213.742188 154.957031 C 214.558594 163.050781 215.644531 171.339844 219.367188 178.683594 C 209.695312 182.34375 199.460938 184.398438 189.136719 184.882812 C 187.632812 187.285156 186.078125 189.695312 183.917969 191.5625 C 179.140625 195.828125 173.335938 199.304688 166.890625 200.109375 C 162.773438 200.785156 158.632812 201.296875 154.464844 201.5 C 144.386719 201.816406 134.179688 201.628906 124.328125 199.285156 C 116.835938 196.796875 109.960938 191.804688 106.027344 184.867188 C 96.808594 184.484375 87.6875 182.625 79.015625 179.488281 C 83.328125 171.519531 84.347656 162.332031 85.214844 153.460938 C 97.757812 148.960938 110.320312 144.53125 122.875 140.070312 C 128.214844 103.371094 133.535156 66.664062 138.859375 29.957031 C 139.058594 29.902344 139.449219 29.796875 139.644531 29.742188 M 146.210938 149.632812 C 142.910156 149.816406 139.566406 150.339844 136.507812 151.652344 C 134.847656 152.394531 133.066406 153.519531 132.644531 155.417969 C 131.960938 158.589844 133.6875 161.675781 135.742188 163.964844 C 138.566406 167.003906 142.214844 169.394531 146.289062 170.332031 C 150.25 171.144531 154.195312 169.324219 157.402344 167.144531 C 160.628906 164.816406 163.785156 161.578125 164.191406 157.429688 C 164.425781 155.074219 162.839844 152.949219 160.777344 151.984375 C 156.304688 149.734375 151.132812 149.457031 146.210938 149.632812 Z M 146.210938 149.632812 "/>
<path style=" stroke:none;fill-rule:nonzero;fill:rgb(60.392157%,43.137255%,23.137255%);fill-opacity:1;" d="M 73.457031 50.734375 C 78.335938 47.351562 83.519531 43.957031 89.441406 42.808594 C 89.226562 45.476562 88.316406 48.011719 87.601562 50.570312 C 80.996094 73.019531 77.265625 96.246094 75.628906 119.566406 C 74.664062 131.476562 74.34375 143.433594 73.210938 155.328125 C 72.53125 161.351562 71.796875 167.550781 69.097656 173.054688 C 67.59375 176.226562 64.78125 178.730469 61.417969 179.765625 C 55.316406 181.625 48.496094 181.832031 42.5625 179.265625 C 36.851562 176.855469 32.265625 172.253906 29.277344 166.878906 C 26.425781 161.757812 24.734375 155.800781 25.464844 149.910156 C 26.863281 136.011719 30.992188 122.554688 35.832031 109.503906 C 41.089844 95.828125 47.402344 82.484375 55.53125 70.265625 C 60.480469 62.921875 66.101562 55.816406 73.457031 50.734375 Z M 73.457031 50.734375 "/>
<path style=" stroke:none;fill-rule:nonzero;fill:rgb(60.392157%,43.137255%,23.137255%);fill-opacity:1;" d="M 209.367188 42.808594 C 213.117188 43.414062 216.503906 45.25 219.777344 47.082031 C 225.617188 50.574219 231.136719 54.753906 235.527344 59.996094 C 244.503906 70.523438 251.207031 82.761719 257.027344 95.253906 C 260.75 103.457031 264.054688 111.851562 266.800781 120.429688 C 269.46875 128.820312 271.714844 137.375 272.921875 146.105469 C 273.359375 149.578125 273.847656 153.121094 273.207031 156.609375 C 271.867188 164.222656 267.761719 171.433594 261.59375 176.15625 C 256.675781 179.972656 250.285156 181.695312 244.109375 181.066406 C 239.675781 180.625 234.796875 179.683594 231.75 176.121094 C 228.453125 172.183594 227.371094 166.964844 226.476562 162.039062 C 224.835938 151.460938 224.628906 140.734375 223.898438 130.070312 C 222.570312 105.511719 219.5 80.957031 213.0625 57.179688 C 211.960938 52.355469 209.984375 47.730469 209.367188 42.808594 Z M 209.367188 42.808594 "/>
</g>
</svg>
