<?xml version="1.0" encoding="UTF-8"?>
<svg xmlns="http://www.w3.org/2000/svg" xmlns:xlink="http://www.w3.org/1999/xlink" width="300px" height="px" viewBox="0 0 299 192" version="1.1">
<g id="surface1">
<path style=" stroke:none;fill-rule:nonzero;fill:rgb(0%,0%,0%);fill-opacity:1;" d="M 139.730469 0.753906 C 166.726562 0.378906 193.8125 1.503906 220.542969 5.539062 C 237.214844 8.144531 253.847656 11.75 269.550781 18.0625 C 277.378906 21.3125 285.152344 25.1875 291.429688 30.996094 C 295.21875 34.53125 298.453125 39.21875 298.566406 44.582031 C 298.492188 56.765625 298.578125 68.953125 298.515625 81.144531 C 298.492188 82.394531 298.738281 83.632812 299 84.855469 L 299 84.890625 C 298.59375 91.8125 293.683594 97.324219 288.433594 101.320312 C 279.324219 108.144531 268.59375 112.335938 257.835938 115.777344 C 238.960938 121.605469 219.355469 124.703125 199.730469 126.640625 C 184.210938 128.136719 168.621094 128.800781 153.039062 128.902344 C 153.027344 132.621094 153.027344 136.34375 153.039062 140.0625 C 160.472656 141.101562 167.398438 145.40625 171.453125 151.765625 C 176.542969 159.46875 177.003906 169.925781 172.644531 178.0625 C 168.597656 185.960938 160.308594 191.28125 151.507812 192 L 148.035156 192 C 138.476562 191.421875 129.515625 185.230469 125.761719 176.382812 C 122.117188 168.183594 123.125 158.121094 128.386719 150.847656 C 132.5 144.976562 139.109375 141.058594 146.183594 140.058594 C 146.179688 136.335938 146.183594 132.613281 146.179688 128.890625 C 113.796875 128.578125 81.140625 126.285156 49.699219 118.078125 C 37.363281 114.703125 25.03125 110.515625 14.257812 103.457031 C 8.894531 99.800781 3.53125 95.1875 1.574219 88.761719 C 0.554688 85.703125 1.523438 82.519531 1.382812 79.394531 C 1.203125 67.605469 1.6875 55.800781 1.0625 44.023438 C 1.210938 39.273438 4.003906 35.089844 7.234375 31.8125 C 12.765625 26.308594 19.726562 22.53125 26.785156 19.367188 C 39.527344 13.789062 53.066406 10.28125 66.6875 7.613281 C 90.75 3.003906 115.261719 1.1875 139.730469 0.753906 M 66.761719 14.878906 C 54.539062 17.324219 42.378906 20.398438 30.785156 25.039062 C 24.320312 27.714844 17.855469 30.777344 12.582031 35.460938 C 10.046875 37.828125 7.539062 40.867188 7.613281 44.53125 C 7.566406 48.074219 9.796875 51.101562 12.300781 53.386719 C 12.410156 49.308594 12.175781 45.222656 12.410156 41.152344 C 12.945312 39.480469 15.863281 39.902344 15.71875 41.726562 C 15.765625 46.507812 15.777344 51.292969 15.699219 56.074219 C 16.671875 56.902344 17.722656 57.621094 18.8125 58.285156 C 18.90625 54.664062 18.714844 51.027344 18.898438 47.410156 C 19.347656 45.644531 22.394531 46.050781 22.226562 47.925781 C 22.28125 51.988281 22.277344 56.058594 22.214844 60.121094 C 22.785156 60.445312 23.359375 60.769531 23.9375 61.101562 C 24.199219 60.960938 24.730469 60.679688 25 60.539062 C 25.03125 57.867188 24.902344 55.1875 25.039062 52.519531 C 25.015625 50.789062 27.890625 50.527344 28.320312 52.152344 C 28.558594 54.46875 28.355469 56.8125 28.410156 59.136719 C 36.398438 55.890625 44.691406 53.441406 53.054688 51.382812 C 77.347656 45.542969 102.289062 42.8125 127.207031 41.644531 C 156.382812 40.386719 185.695312 41.445312 214.640625 45.382812 C 233.597656 48.074219 252.5625 51.765625 270.46875 58.71875 C 270.527344 56.503906 270.332031 54.28125 270.570312 52.074219 C 271.121094 50.539062 273.851562 50.835938 273.839844 52.539062 C 273.972656 55.070312 273.882812 57.605469 273.859375 60.136719 C 274.730469 60.542969 275.679688 60.976562 276.613281 60.457031 C 276.699219 56.121094 276.511719 51.769531 276.699219 47.441406 C 277.042969 45.824219 279.800781 45.910156 279.988281 47.566406 C 280.164062 51.1875 280 54.828125 280.054688 58.460938 C 281.066406 57.8125 282.082031 57.152344 283.089844 56.496094 C 283.210938 51.53125 283.035156 46.566406 283.171875 41.601562 C 283.125 39.855469 285.886719 39.554688 286.457031 41.109375 C 286.699219 45.324219 286.476562 49.566406 286.5625 53.789062 C 288.941406 51.445312 291.394531 48.664062 291.605469 45.160156 C 291.902344 41.640625 289.761719 38.515625 287.371094 36.152344 C 283.296875 32.1875 278.234375 29.445312 273.132812 27.039062 C 262.953125 22.382812 252.140625 19.28125 241.265625 16.730469 C 216.039062 10.988281 190.171875 8.519531 164.351562 7.742188 C 131.707031 6.929688 98.871094 8.652344 66.761719 14.878906 M 62.269531 56.164062 C 52.140625 58.371094 42.058594 60.964844 32.421875 64.828125 C 44.660156 69.398438 57.386719 72.570312 70.21875 74.9375 C 86.789062 78 103.578125 79.792969 120.394531 80.769531 C 149.707031 82.371094 179.175781 81.695312 208.320312 78.101562 C 228.125 75.515625 247.96875 71.867188 266.703125 64.765625 C 264.761719 63.769531 262.65625 63.183594 260.621094 62.453125 C 246.191406 57.652344 231.222656 54.703125 216.203125 52.503906 C 190.722656 48.867188 164.933594 47.628906 139.21875 48.109375 C 113.414062 48.691406 87.566406 50.902344 62.269531 56.164062 M 7.492188 57.566406 C 7.570312 65.628906 7.503906 73.691406 7.527344 81.753906 C 7.78125 84.816406 7.910156 88.109375 9.84375 90.664062 C 13.585938 95.828125 19.332031 99.023438 24.917969 101.828125 C 38.183594 108.125 52.523438 111.769531 66.859375 114.679688 C 97.054688 120.570312 127.917969 122.382812 158.636719 121.972656 C 184.261719 121.503906 209.921875 119.355469 235.0625 114.246094 C 247.632812 111.621094 260.140625 108.34375 271.941406 103.199219 C 277.609375 100.644531 283.269531 97.726562 287.769531 93.355469 C 289.527344 91.53125 291.292969 89.421875 291.714844 86.855469 C 291.667969 77.21875 291.671875 67.570312 291.714844 57.929688 C 288.136719 61.335938 283.957031 64.035156 279.652344 66.40625 C 277.980469 67.480469 276.199219 68.34375 274.34375 69.046875 C 262.296875 74.539062 249.453125 78.046875 236.535156 80.753906 C 212.605469 85.664062 188.171875 87.667969 163.78125 88.285156 C 137.6875 88.851562 111.515625 87.964844 85.621094 84.570312 C 68.011719 82.171875 50.425781 78.738281 33.710938 72.566406 C 24.273438 69.011719 14.859375 64.621094 7.492188 57.566406 M 144.609375 147.730469 C 137.1875 149.632812 131.335938 156.398438 130.574219 164.039062 C 129.578125 171.554688 133.558594 179.382812 140.191406 183.015625 C 146.800781 186.839844 155.667969 186.132812 161.578125 181.285156 C 168.582031 175.898438 170.828125 165.441406 166.734375 157.617188 C 162.878906 149.632812 153.113281 145.285156 144.609375 147.730469 Z M 144.609375 147.730469 "/>
<path style=" stroke:none;fill-rule:nonzero;fill:rgb(0%,0%,0%);fill-opacity:1;" d="M 140.410156 154.863281 C 140.683594 154.804688 141.242188 154.691406 141.515625 154.632812 C 147.429688 154.644531 153.347656 154.546875 159.25 154.6875 C 161.054688 154.835938 160.976562 157.949219 159.171875 158 C 153.664062 158.144531 148.148438 157.996094 142.640625 158.070312 C 141.863281 158.003906 140.996094 158.171875 140.308594 157.738281 C 139.410156 157.039062 139.453125 155.484375 140.410156 154.863281 Z M 140.410156 154.863281 "/>
<path style=" stroke:none;fill-rule:nonzero;fill:rgb(0%,0%,0%);fill-opacity:1;" d="M 135.507812 164.902344 C 136.238281 164.367188 137.277344 164.65625 138.132812 164.554688 C 146.316406 164.601562 154.503906 164.542969 162.6875 164.582031 C 164.238281 164.210938 165.363281 166.285156 164.289062 167.417969 C 163.789062 168.136719 162.800781 167.929688 162.058594 168.011719 C 153.464844 167.949219 144.867188 168.078125 136.273438 167.949219 C 134.816406 167.898438 134.355469 165.695312 135.507812 164.902344 Z M 135.507812 164.902344 "/>
<path style=" stroke:none;fill-rule:nonzero;fill:rgb(0%,0%,0%);fill-opacity:1;" d="M 140.484375 174.367188 C 146.492188 173.914062 152.597656 174.28125 158.648438 174.175781 C 160.808594 173.703125 161.324219 177.386719 159.175781 177.542969 C 153.664062 177.691406 148.140625 177.542969 142.628906 177.617188 C 141.746094 177.546875 140.644531 177.769531 140.003906 176.996094 C 139.433594 176.175781 139.570312 174.867188 140.484375 174.367188 Z M 140.484375 174.367188 "/>
</g>
</svg>
