<?xml version="1.0" encoding="UTF-8"?>
<svg xmlns="http://www.w3.org/2000/svg" xmlns:xlink="http://www.w3.org/1999/xlink" width="300px" height="px" viewBox="0 0 300 310" version="1.1">
<defs>
<filter id="alpha" filterUnits="objectBoundingBox" x="0%" y="0%" width="100%" height="100%">
  <feColorMatrix type="matrix" in="SourceGraphic" values="0 0 0 0 1 0 0 0 0 1 0 0 0 0 1 0 0 0 1 0"/>
</filter>
<mask id="mask0">
  <g filter="url(#alpha)">
<rect x="0" y="0" width="300" height="310" style="fill:rgb(0%,0%,0%);fill-opacity:0.309804;stroke:none;"/>
  </g>
</mask>
<clipPath id="clip1">
  <rect x="0" y="0" width="300" height="310"/>
</clipPath>
<g id="surface5" clip-path="url(#clip1)">
<path style=" stroke:none;fill-rule:nonzero;fill:rgb(23.921569%,33.72549%,46.666667%);fill-opacity:1;" d="M 252.769531 99.640625 L 253.253906 99.359375 L 253.859375 99.640625 L 253.945312 100.195312 C 253.648438 100.054688 253.0625 99.78125 252.769531 99.640625 Z M 252.769531 99.640625 "/>
</g>
<mask id="mask1">
  <g filter="url(#alpha)">
<rect x="0" y="0" width="300" height="310" style="fill:rgb(0%,0%,0%);fill-opacity:0.309804;stroke:none;"/>
  </g>
</mask>
<clipPath id="clip2">
  <rect x="0" y="0" width="300" height="310"/>
</clipPath>
<g id="surface8" clip-path="url(#clip2)">
<path style=" stroke:none;fill-rule:nonzero;fill:rgb(23.921569%,33.72549%,46.666667%);fill-opacity:1;" d="M 28.351562 132.414062 C 28.382812 131.71875 28.46875 131.035156 28.601562 130.359375 C 28.839844 147.105469 28.636719 163.859375 28.707031 180.613281 C 28.699219 210.867188 28.722656 241.117188 28.691406 271.371094 C 28.472656 270.632812 28.355469 269.878906 28.34375 269.109375 C 28.371094 223.542969 28.371094 177.976562 28.351562 132.414062 Z M 28.351562 132.414062 "/>
</g>
<mask id="mask2">
  <g filter="url(#alpha)">
<rect x="0" y="0" width="300" height="310" style="fill:rgb(0%,0%,0%);fill-opacity:0.309804;stroke:none;"/>
  </g>
</mask>
<clipPath id="clip3">
  <rect x="0" y="0" width="300" height="310"/>
</clipPath>
<g id="surface11" clip-path="url(#clip3)">
<path style=" stroke:none;fill-rule:nonzero;fill:rgb(23.921569%,33.72549%,46.666667%);fill-opacity:1;" d="M 203.042969 237.515625 C 205.382812 238.082031 207.691406 238.933594 210.132812 238.90625 C 228.75 238.957031 247.371094 238.859375 265.992188 238.949219 C 266.042969 248.609375 266.003906 258.269531 266.03125 267.929688 C 266.023438 270.164062 265.9375 272.441406 265.195312 274.574219 L 265.242188 274.019531 C 265.457031 272.191406 265.695312 270.363281 265.695312 268.527344 C 265.652344 258.757812 265.695312 248.996094 265.667969 239.230469 C 247.351562 239.25 229.035156 239.210938 210.71875 239.242188 C 208.0625 239.265625 205.40625 238.738281 203.042969 237.515625 Z M 203.042969 237.515625 "/>
</g>
</defs>
<g id="surface1">
<path style=" stroke:none;fill-rule:nonzero;fill:rgb(17.254902%,39.607843%,69.019608%);fill-opacity:1;" d="M 160.039062 15.324219 C 162.03125 13.960938 164.824219 14.40625 166.460938 16.121094 C 192.851562 40.007812 219.234375 63.898438 245.605469 87.808594 C 247.097656 89.027344 248.390625 90.796875 248.09375 92.835938 C 247.878906 95.074219 245.925781 96.449219 244.820312 98.246094 C 247.492188 98.382812 250.347656 98.332031 252.769531 99.640625 C 253.0625 99.78125 253.648438 100.054688 253.945312 100.195312 C 257.761719 101.703125 260.710938 105.035156 262.523438 108.652344 C 265.230469 114.003906 264.007812 120.136719 264.289062 125.886719 C 271.015625 130.511719 275.644531 138.222656 275.894531 146.449219 C 276.023438 158.300781 275.828125 170.164062 275.984375 182.019531 C 277.164062 183.441406 278.976562 184.296875 279.886719 185.980469 C 281.402344 188.148438 281.898438 190.839844 281.816406 193.4375 C 281.773438 205.035156 281.867188 216.628906 281.773438 228.214844 C 281.769531 232.257812 279.199219 235.746094 275.941406 237.914062 C 275.90625 246.488281 275.9375 255.058594 275.929688 263.640625 C 275.875 268.300781 276.320312 273.097656 274.738281 277.585938 C 271.550781 288.226562 260.9375 296.117188 249.785156 295.878906 C 184.246094 295.921875 118.699219 295.890625 53.160156 295.890625 C 44.003906 296.152344 35.015625 292.566406 27.863281 286.988281 C 22.828125 282.910156 18.566406 277.070312 18.4375 270.371094 C 18.433594 219.917969 18.4375 169.460938 18.4375 119.007812 C 18.464844 116.007812 18.085938 112.90625 19.128906 110.019531 C 21.253906 103.140625 28.222656 98.199219 35.40625 98.320312 C 46.007812 98.285156 56.609375 98.351562 67.214844 98.304688 C 68.0625 98.414062 68.792969 98.011719 69.308594 97.363281 C 90.875 73.144531 112.414062 48.898438 133.984375 24.679688 C 135.261719 23.078125 137.09375 21.6875 139.273438 22.113281 C 143.164062 22.402344 145.21875 27.796875 142.328125 30.519531 C 116.695312 59.441406 90.941406 88.257812 65.300781 117.175781 C 64 118.570312 62.652344 119.929688 61.589844 121.523438 C 62.699219 121.566406 63.816406 121.621094 64.929688 121.554688 C 66.1875 120.875 66.960938 119.574219 67.921875 118.558594 C 97.238281 85.609375 126.554688 52.65625 155.875 19.710938 C 157.230469 18.226562 158.421875 16.550781 160.039062 15.324219 M 78.953125 121.535156 C 123.066406 121.621094 167.1875 121.570312 211.300781 121.558594 C 219.527344 111.984375 227.75 102.402344 235.933594 92.785156 C 230.234375 87.429688 224.335938 82.308594 218.597656 76.988281 C 200.042969 60.328125 181.699219 43.441406 163.089844 26.84375 C 135.078125 58.441406 106.882812 89.863281 78.953125 121.535156 M 28.484375 114.738281 C 28.214844 118.246094 31.300781 121.578125 34.824219 121.570312 C 39.125 121.625 43.429688 121.558594 47.734375 121.589844 C 51.664062 117.246094 55.6875 112.972656 59.359375 108.410156 C 51.382812 108.371094 43.410156 108.359375 35.4375 108.394531 C 32.003906 108.421875 28.515625 111.140625 28.484375 114.738281 M 235.871094 108.433594 C 232.21875 112.84375 228.347656 117.074219 224.78125 121.546875 C 234.570312 121.765625 244.386719 121.234375 254.164062 121.839844 C 254.082031 119.320312 254.433594 116.746094 253.828125 114.265625 C 252.929688 110.890625 249.625 108.402344 246.136719 108.433594 C 242.710938 108.402344 239.292969 108.433594 235.871094 108.433594 M 28.351562 132.414062 C 28.371094 177.976562 28.371094 223.542969 28.34375 269.109375 C 28.355469 269.878906 28.472656 270.632812 28.691406 271.371094 C 29.101562 273.367188 30.304688 275.089844 31.605469 276.609375 C 35.617188 280.976562 41.140625 283.800781 46.867188 285.15625 C 50.308594 286.046875 53.878906 285.753906 57.386719 285.804688 C 121.519531 285.792969 185.65625 285.828125 249.789062 285.78125 C 256.820312 285.863281 263.445312 280.800781 265.242188 274.019531 L 265.195312 274.574219 C 265.9375 272.441406 266.023438 270.164062 266.03125 267.929688 C 266.003906 258.269531 266.042969 248.609375 265.992188 238.949219 C 247.371094 238.859375 228.75 238.957031 210.132812 238.90625 C 207.691406 238.933594 205.382812 238.082031 203.042969 237.515625 C 196.09375 234.464844 191.140625 227.332031 191.011719 219.710938 C 191.019531 212.992188 190.949219 206.265625 191.046875 199.546875 C 191.574219 189.753906 200.28125 181.226562 210.117188 181.019531 C 228.695312 180.996094 247.28125 181.042969 265.863281 180.996094 C 265.835938 170.695312 265.847656 160.402344 265.851562 150.101562 C 265.992188 146.738281 265.601562 143.257812 263.953125 140.273438 C 261.230469 134.867188 255.1875 131.523438 249.191406 131.660156 C 177.726562 131.683594 106.269531 131.652344 34.804688 131.664062 C 32.664062 131.714844 30.566406 131.183594 28.601562 130.359375 C 28.46875 131.035156 28.382812 131.71875 28.351562 132.414062 M 201.175781 200.792969 C 201.167969 206.675781 201.199219 212.550781 201.167969 218.433594 C 200.65625 223.816406 205.316406 228.972656 210.734375 228.972656 C 230.0625 229.003906 249.386719 228.949219 268.71875 228.984375 C 269.675781 228.980469 270.636719 228.820312 271.582031 228.65625 C 271.726562 217.523438 271.589844 206.394531 271.65625 195.261719 C 271.671875 193.925781 271.613281 192.589844 271.433594 191.273438 C 251.390625 191.039062 231.339844 191.253906 211.292969 191.164062 C 206.011719 190.820312 201.066406 195.496094 201.175781 200.792969 Z M 201.175781 200.792969 "/>
<path style=" stroke:none;fill-rule:nonzero;fill:rgb(17.254902%,39.607843%,69.019608%);fill-opacity:1;" d="M 111.050781 153.652344 C 113.660156 151.375 118.222656 152.917969 119.027344 156.261719 C 119.492188 158.992188 119.140625 161.796875 119.210938 164.5625 C 128.195312 165.90625 137.132812 170.730469 141.546875 178.914062 C 142.941406 181.253906 142.042969 184.546875 139.617188 185.804688 C 137.21875 187.355469 133.902344 186.097656 132.648438 183.664062 C 129.875 178.785156 124.554688 175.957031 119.207031 174.851562 C 119.28125 184.9375 119.210938 195.027344 119.242188 205.113281 C 125.980469 206.167969 132.9375 208.199219 138 212.996094 C 143.257812 218.128906 145.125 226.027344 143.984375 233.132812 C 142.945312 239.554688 138.761719 245.066406 133.550781 248.773438 C 129.320312 251.714844 124.359375 253.570312 119.261719 254.304688 C 118.816406 257.933594 120.519531 262.675781 117.183594 265.324219 C 114.492188 267.691406 109.835938 265.890625 109.203125 262.4375 C 108.890625 259.742188 109.152344 257.011719 109.042969 254.308594 C 99.734375 253.035156 90.554688 247.75 86.285156 239.152344 C 84.59375 236.199219 86.941406 231.96875 90.378906 231.96875 C 92.484375 231.644531 94.496094 232.898438 95.367188 234.78125 C 98.039062 239.921875 103.546875 242.929688 109.054688 244.058594 C 109.0625 233.964844 109.105469 223.863281 109.035156 213.773438 C 101.953125 212.476562 94.683594 209.914062 89.644531 204.546875 C 83.703125 198.242188 82.335938 188.246094 85.949219 180.433594 C 90.074219 171.425781 99.535156 165.933594 109.09375 164.550781 C 109.453125 160.949219 107.796875 156.300781 111.050781 153.652344 M 97.003906 181.765625 C 93.578125 185.707031 93.226562 191.9375 96.015625 196.308594 C 98.976562 200.578125 104.261719 202.171875 109.035156 203.464844 C 109.066406 193.925781 109.0625 184.390625 109.035156 174.851562 C 104.480469 175.9375 99.972656 178.03125 97.003906 181.765625 M 119.21875 215.347656 C 119.21875 224.914062 119.21875 234.488281 119.21875 244.058594 C 125.496094 242.90625 131.933594 238.9375 133.804688 232.523438 C 134.632812 228.40625 134.175781 223.578125 131.164062 220.40625 C 127.96875 217.273438 123.464844 216.199219 119.21875 215.347656 Z M 119.21875 215.347656 "/>
<path style=" stroke:none;fill-rule:nonzero;fill:rgb(17.254902%,39.607843%,69.019608%);fill-opacity:1;" d="M 218.355469 195.714844 C 224.992188 193.21875 233.03125 196.28125 236.476562 202.433594 C 239.15625 206.96875 239.21875 212.9375 236.566406 217.5 C 234.300781 221.601562 230.027344 224.523438 225.371094 225.089844 C 219.761719 225.953125 213.8125 223.230469 210.714844 218.496094 C 208.410156 215.109375 207.617188 210.769531 208.496094 206.777344 C 209.558594 201.707031 213.457031 197.394531 218.355469 195.714844 M 221.347656 205.449219 C 217.941406 206.679688 217.269531 211.777344 220.152344 213.925781 C 222.953125 216.546875 228.144531 214.429688 228.292969 210.597656 C 228.921875 206.949219 224.65625 203.765625 221.347656 205.449219 Z M 221.347656 205.449219 "/>
<use xlink:href="#surface5" mask="url(#mask0)"/>
<use xlink:href="#surface8" mask="url(#mask1)"/>
<use xlink:href="#surface11" mask="url(#mask2)"/>
</g>
</svg>
